<svg width="97" height="97" viewBox="0 0 97 97" fill="none" xmlns="http://www.w3.org/2000/svg">
<g clip-path="url(#clip0_1240_4516)">
<path d="M33.3438 72.75H63.6562V78.8125H33.3438V72.75Z" fill="black"/>
<path d="M39.4062 84.875H57.5938V90.9375H39.4062V84.875Z" fill="black"/>
<path d="M69.8667 48.5C68.3086 50.9342 66.3971 53.1231 64.1949 54.9948C60.949 58.0024 57.5938 61.1133 57.5938 66.6875H63.6562C63.6562 63.9006 65.2519 62.2922 68.3098 59.4558C71.8888 56.4912 74.7372 52.7424 76.6345 48.5H69.8667Z" fill="black"/>
<path d="M48.501 12.1259C52.3981 12.1254 56.2369 13.0728 59.6863 14.8862L62.4017 9.4572C57.7835 7.06436 52.6267 5.90142 47.4284 6.08045C42.2301 6.25947 37.1656 7.77444 32.7229 10.4793C28.2802 13.1842 24.6091 16.9879 22.0633 21.5237C19.5176 26.0595 18.1832 31.1746 18.1885 36.3759C17.9827 40.7798 18.8264 45.1695 20.6498 49.1834C22.4733 53.1973 25.2245 56.7204 28.6767 59.4625C31.7434 62.2955 33.3448 63.9042 33.3448 66.6884H39.4073C39.4073 61.1109 36.0402 58.0002 32.7825 54.9896C29.9436 52.824 27.6807 49.9937 26.193 46.7478C24.7053 43.502 24.0384 39.9401 24.251 36.3759C24.2584 29.9467 26.8157 23.7829 31.3618 19.2367C35.908 14.6906 42.0718 12.1333 48.501 12.1259Z" fill="black"/>
<path d="M87.9066 42.4376H57.5941C57.0774 42.4377 56.5692 42.3056 56.1178 42.054C55.6664 41.8024 55.2869 41.4396 55.0152 41C54.7436 40.5604 54.5888 40.0587 54.5656 39.5425C54.5424 39.0262 54.6515 38.5126 54.8826 38.0505L70.0389 7.73797C70.2907 7.2345 70.6777 6.81109 71.1565 6.51517C71.6354 6.21924 72.1871 6.0625 72.7501 6.0625C73.313 6.0625 73.8647 6.21924 74.3436 6.51517C74.8224 6.81109 75.2094 7.2345 75.4612 7.73797L90.6175 38.0505C90.8486 38.5126 90.9577 39.0261 90.9345 39.5423C90.9114 40.0585 90.7566 40.5602 90.485 40.9997C90.2134 41.4393 89.834 41.8021 89.3827 42.0538C88.9314 42.3054 88.4233 42.4376 87.9066 42.4376ZM62.4993 36.3751H83.0014L72.7504 15.872L62.4993 36.3751Z" fill="black"/>
</g>
<defs>
<clipPath id="clip0_1240_4516">
<rect width="97" height="97" fill="white"/>
</clipPath>
</defs>
</svg>
