<svg width="160" height="160" viewBox="0 0 160 160" fill="none" xmlns="http://www.w3.org/2000/svg">
<path d="M47.8002 45.234L13.3335 37.334V122.667L47.8002 112.421V45.234ZM44.8468 110.241L44.6335 110.301L16.2868 118.734V41.0207L16.6468 41.1073L44.8468 47.5807V110.241ZM112.2 45.234V112.447L146.667 122.667V37.334L112.2 45.234ZM143.713 118.734L143.333 118.614L115.153 110.241V47.574L115.387 47.5206L143.713 41.014V118.734ZM44.2535 48.054L41.8602 47.5073V110.514L44.2535 109.801V48.054ZM81.9535 112.981V44.5607H112.493L118.007 43.2873V41.014H41.8602V43.2607L47.5068 44.5607H77.9135V112.981H48.0668L41.8602 114.827V116.527H118.007V114.787L111.94 112.981H81.9535ZM118.007 47.534L115.747 48.054V109.801L118.007 110.474V47.534Z" fill="black"/>
</svg>
