<svg width="97" height="97" viewBox="0 0 97 97" fill="none" xmlns="http://www.w3.org/2000/svg">
<path d="M48.9213 0.00209724C50.5097 0.00209724 52.0738 0.10516 53.5288 0.34766C54.9623 0.532318 56.3765 0.84477 57.7543 1.28128C59.1285 1.69353 60.4905 2.22501 61.8405 2.87572C63.156 3.50016 64.508 4.26403 65.8599 5.0946C68.1455 6.5496 70.3947 7.72572 72.6863 8.66541C77.1965 10.4747 81.9676 11.5493 86.818 11.8482C89.2713 12.0301 91.8114 12.1231 94.4385 12.1271V36.3771C94.4385 40.9806 93.8505 45.3577 92.6743 49.5085C91.5444 53.6079 89.939 57.5612 87.891 61.2879C85.8519 65.0095 83.4386 68.5136 80.6888 71.7457C77.8985 75.0529 74.8757 78.1567 71.6435 81.0335C68.3658 83.9151 64.9181 86.5975 61.3191 89.0663C57.7139 91.5721 54.0885 93.8819 50.443 95.9957L48.988 96.8627L47.533 95.9957C43.7933 93.8313 40.1408 91.5197 36.5841 89.0663C32.9658 86.6241 29.5165 83.9403 26.2597 81.0335C23.0295 78.1565 20.0088 75.0527 17.2205 71.7457C14.4799 68.4984 12.056 64.9965 9.98184 61.2879C7.97067 57.5438 6.36706 53.5947 5.19853 49.5085C4.02278 45.2312 3.43938 40.8129 3.46465 36.3771V12.1271C6.09174 12.1231 8.63395 12.0301 11.0913 11.8482C13.5146 11.6835 15.9221 11.337 18.2935 10.8115C20.6155 10.2902 22.9374 9.59904 25.223 8.66541C27.5941 7.70697 29.8678 6.52341 32.013 5.13097C34.6805 3.3971 37.3843 2.11791 40.0518 1.27522C42.9249 0.395489 45.9168 -0.0339755 48.9213 0.00209724ZM88.3397 18.0865C83.7507 17.8619 79.2045 17.0947 74.796 15.801C70.4124 14.49 66.2364 12.5652 62.3922 10.084C60.3976 8.77822 58.2333 7.75217 55.9598 7.0346C53.6875 6.34929 51.3249 6.01003 48.9516 6.02822C46.5606 6.01365 44.1806 6.35278 41.8888 7.0346C39.6127 7.73079 37.4515 8.75828 35.4747 10.084C31.6224 12.5763 27.4359 14.5093 23.0405 15.8252C18.7442 17.0741 14.2397 17.838 9.52715 18.1168V36.4074C9.52715 40.4208 10.0485 44.2765 11.0913 47.9747C12.1545 51.6463 13.6183 55.1899 15.4563 58.5416C17.317 61.9278 19.5103 65.1203 22.0038 68.0718C24.5318 71.0485 27.2297 73.8191 30.1397 76.4502C33.0497 79.0813 36.0991 81.5185 39.288 83.7616C42.5092 86.0088 45.7304 88.064 48.9516 89.9272C52.2494 88.0107 55.4634 85.9536 58.5849 83.7616C61.7987 81.5246 64.8646 79.0824 67.7635 76.4502C70.6735 73.8191 73.3774 71.0485 75.9055 68.0718C78.3989 65.1203 80.5922 61.9278 82.453 58.5416C84.2817 55.1936 85.7237 51.6485 86.7513 47.9747C87.8268 44.2138 88.3617 40.319 88.3397 36.4074V18.0865Z" fill="black"/>
<path fill-rule="evenodd" clip-rule="evenodd" d="M71.524 28.5553L68.8565 26.2637L66.3951 26.4759L39.9626 57.6856L30.9598 44.8331L28.5348 44.4209L25.7279 46.4275L25.3096 48.8525L36.8829 65.3789L38.1984 66.1064L40.969 66.2762L42.3876 65.6578L71.6998 31.0106L71.524 28.5553Z" fill="black"/>
</svg>
