<svg width="89" height="89" viewBox="0 0 89 89" fill="none" xmlns="http://www.w3.org/2000/svg">
<path d="M38.059 6.14198C38.8166 5.30976 39.7396 4.64489 40.7689 4.18994C41.7983 3.735 42.9113 3.5 44.0366 3.5C45.162 3.5 46.275 3.735 47.3044 4.18994C48.3337 4.64489 49.2567 5.30976 50.0143 6.14198L54.1368 10.6687C54.9372 11.5474 55.9216 12.2388 57.0198 12.6935C58.118 13.1483 59.3029 13.3553 60.4903 13.2998L66.6053 13.0169C67.729 12.9639 68.8514 13.1461 69.9007 13.5518C70.9499 13.9574 71.9029 14.5776 72.6988 15.3727C73.4946 16.1678 74.1158 17.1202 74.5224 18.1691C74.9291 19.218 75.1124 20.3402 75.0605 21.4639L74.7735 27.583C74.718 28.7704 74.925 29.9553 75.3798 31.0535C75.8345 32.1517 76.5259 33.1361 77.4046 33.9365L81.9313 38.059C82.7635 38.8166 83.4284 39.7396 83.8834 40.7689C84.3383 41.7983 84.5733 42.9113 84.5733 44.0366C84.5733 45.162 84.3383 46.275 83.8834 47.3044C83.4284 48.3337 82.7635 49.2567 81.9313 50.0143L77.4046 54.1368C76.5259 54.9372 75.8345 55.9216 75.3798 57.0198C74.925 58.118 74.718 59.3029 74.7735 60.4903L75.0564 66.6053C75.1094 67.729 74.9272 68.8514 74.5215 69.9007C74.1159 70.9499 73.4957 71.9029 72.7006 72.6988C71.9055 73.4946 70.9531 74.1158 69.9042 74.5224C68.8553 74.9291 67.7331 75.1124 66.6094 75.0605L60.4903 74.7735C59.3029 74.718 58.118 74.925 57.0198 75.3798C55.9216 75.8345 54.9372 76.5259 54.1368 77.4046L50.0143 81.9313C49.2567 82.7635 48.3337 83.4284 47.3044 83.8834C46.275 84.3383 45.162 84.5733 44.0366 84.5733C42.9113 84.5733 41.7983 84.3383 40.7689 83.8834C39.7396 83.4284 38.8166 82.7635 38.059 81.9313L33.9365 77.4046C33.1361 76.5259 32.1517 75.8345 31.0535 75.3798C29.9553 74.925 28.7704 74.718 27.583 74.7735L21.468 75.0564C20.3443 75.1094 19.2219 74.9272 18.1726 74.5215C17.1234 74.1159 16.1703 73.4957 15.3745 72.7006C14.5787 71.9055 13.9575 70.9531 13.5509 69.9042C13.1442 68.8553 12.9609 67.7331 13.0128 66.6094L13.2998 60.4903C13.3553 59.3029 13.1483 58.118 12.6935 57.0198C12.2388 55.9216 11.5474 54.9372 10.6687 54.1368L6.14198 50.0143C5.30976 49.2567 4.64489 48.3337 4.18994 47.3044C3.735 46.275 3.5 45.162 3.5 44.0366C3.5 42.9113 3.735 41.7983 4.18994 40.7689C4.64489 39.7396 5.30976 38.8166 6.14198 38.059L10.6687 33.9365C11.5474 33.1361 12.2388 32.1517 12.6935 31.0535C13.1483 29.9553 13.3553 28.7704 13.2998 27.583L13.0169 21.468C12.9639 20.3443 13.1461 19.2219 13.5518 18.1726C13.9574 17.1234 14.5776 16.1703 15.3727 15.3745C16.1678 14.5787 17.1202 13.9575 18.1691 13.5509C19.218 13.1442 20.3402 12.9609 21.4639 13.0128L27.583 13.2998C28.7704 13.3553 29.9553 13.1483 31.0535 12.6935C32.1517 12.2388 33.1361 11.5474 33.9365 10.6687L38.059 6.14198Z" stroke="black" stroke-width="7"/>
<path d="M31.9121 44.0345L39.9954 52.1178L56.1621 35.9512" stroke="black" stroke-width="4" stroke-linecap="round" stroke-linejoin="round"/>
</svg>
