<svg width="40" height="40" viewBox="0 0 40 40" fill="none" xmlns="http://www.w3.org/2000/svg">
<path d="M10 28.3333C10 25 16.6667 23.1667 20 23.1667C23.3333 23.1667 30 25 30 28.3333V30H10M25 15C25 16.3261 24.4732 17.5979 23.5355 18.5355C22.5979 19.4732 21.3261 20 20 20C18.6739 20 17.4021 19.4732 16.4645 18.5355C15.5268 17.5979 15 16.3261 15 15C15 13.6739 15.5268 12.4021 16.4645 11.4645C17.4021 10.5268 18.6739 10 20 10C21.3261 10 22.5979 10.5268 23.5355 11.4645C24.4732 12.4021 25 13.6739 25 15ZM5 8.33333V31.6667C5 32.5507 5.35119 33.3986 5.97631 34.0237C6.60143 34.6488 7.44928 35 8.33333 35H31.6667C32.5507 35 33.3986 34.6488 34.0237 34.0237C34.6488 33.3986 35 32.5507 35 31.6667V8.33333C35 7.44928 34.6488 6.60143 34.0237 5.97631C33.3986 5.35119 32.5507 5 31.6667 5H8.33333C7.44928 5 6.60143 5.35119 5.97631 5.97631C5.35119 6.60143 5 7.44928 5 8.33333Z" fill="black"/>
</svg>
