<svg width="97" height="97" viewBox="0 0 97 97" fill="none" xmlns="http://www.w3.org/2000/svg">
<path d="M48.5 18.1878V4.92578" stroke="black" stroke-width="5" stroke-linecap="round" stroke-linejoin="round"/>
<path d="M48.5 92.0746V78.8125" stroke="black" stroke-width="5" stroke-linecap="round" stroke-linejoin="round"/>
<path d="M18.1878 48.5H4.92578" stroke="black" stroke-width="5" stroke-linecap="round" stroke-linejoin="round"/>
<path d="M92.0746 48.5H78.8125" stroke="black" stroke-width="5" stroke-linecap="round" stroke-linejoin="round"/>
<path d="M39.7539 37.3298C39.7539 39.6494 40.6754 41.874 42.3155 43.514C43.9559 45.1543 46.1803 46.0758 48.4996 46.0758C50.8193 46.0758 53.0437 45.1543 54.684 43.514C56.324 41.874 57.2454 39.6494 57.2454 37.3298C57.2454 35.0103 56.324 32.7857 54.684 31.1456C53.0437 29.5054 50.8193 28.584 48.4996 28.584C46.1803 28.584 43.9559 29.5054 42.3155 31.1456C40.6754 32.7857 39.7539 35.0103 39.7539 37.3298Z" stroke="black" stroke-width="5" stroke-linecap="round" stroke-linejoin="round"/>
<path d="M32.8857 66.4725C32.8857 62.3316 34.5307 58.3603 37.4588 55.4322C40.3868 52.5044 44.358 50.8594 48.4989 50.8594C52.6398 50.8594 56.6111 52.5044 59.5389 55.4322C62.4671 58.3603 64.112 62.3316 64.112 66.4725H32.8857Z" stroke="black" stroke-width="5" stroke-linecap="round" stroke-linejoin="round"/>
<path d="M11.6357 48.503C11.6357 58.2621 15.5125 67.6211 22.413 74.5217C29.3136 81.4223 38.6728 85.299 48.4319 85.299C58.1906 85.299 67.5499 81.4223 74.4506 74.5217C81.3512 67.6211 85.2279 58.2621 85.2279 48.503C85.2279 38.7441 81.3512 29.3849 74.4506 22.4843C67.5499 15.5837 58.1906 11.707 48.4319 11.707C38.6728 11.707 29.3136 15.5837 22.413 22.4843C15.5125 29.3849 11.6357 38.7441 11.6357 48.503Z" stroke="black" stroke-width="5" stroke-linecap="round" stroke-linejoin="round"/>
</svg>
